<?xml version="1.0" encoding="UTF-8" standalone="no"?>
<!-- Generator: Adobe Illustrator 16.0.3, SVG Export Plug-In . SVG Version: 6.00 Build 0)  -->

<svg
   version="1.1"
   id="Capa_1"
   x="0px"
   y="0px"
   width="4588.0186"
   height="1080"
   viewBox="0 0 4588.0183 1080"
   enable-background="new 0 0 595.28 841.89"
   xml:space="preserve"
   sodipodi:docname="Logo de Gentera.svg"
   inkscape:version="1.1 (c68e22c387, 2021-05-23)"
   xmlns:inkscape="http://www.inkscape.org/namespaces/inkscape"
   xmlns:sodipodi="http://sodipodi.sourceforge.net/DTD/sodipodi-0.dtd"
   xmlns="http://www.w3.org/2000/svg"
   xmlns:svg="http://www.w3.org/2000/svg"><defs
   id="defs37" /><sodipodi:namedview
   id="namedview35"
   pagecolor="#ffffff"
   bordercolor="#666666"
   borderopacity="1.0"
   inkscape:pageshadow="2"
   inkscape:pageopacity="0.0"
   inkscape:pagecheckerboard="0"
   showgrid="false"
   fit-margin-top="0"
   fit-margin-left="0"
   fit-margin-right="0"
   fit-margin-bottom="0"
   inkscape:zoom="0.030882894"
   inkscape:cx="10118.87"
   inkscape:cy="4743.7264"
   inkscape:window-width="1920"
   inkscape:window-height="1017"
   inkscape:window-x="1912"
   inkscape:window-y="-8"
   inkscape:window-maximized="1"
   inkscape:current-layer="Capa_1" />
<g
   id="g32"
   transform="matrix(5.4006771,0,0,5.4006771,590.51774,-1673.5348)">
	<g
   id="g30">
		
		<path
   fill-rule="evenodd"
   clip-rule="evenodd"
   fill="#ada199"
   d="m 429.778,493.722 c 3.28,-7.802 6.646,-15.559 9.813,-23.394 7.987,-19.758 16.231,-39.418 23.024,-59.635 0.582,-1.732 1.432,-2.494 3.34,-2.455 5.397,0.111 10.801,0.138 16.196,-0.009 2.212,-0.06 3.178,0.869 3.909,2.811 8.527,22.628 17.112,45.236 25.696,67.843 3.229,8.507 6.446,17.019 9.774,25.486 0.957,2.434 0.67,3.332 -2.216,3.234 -5.753,-0.195 -11.521,-0.183 -17.274,-0.003 -2.463,0.076 -3.538,-0.696 -4.279,-3.097 -1.87,-6.051 -4.188,-11.961 -6.151,-17.983 -0.664,-2.034 -1.62,-2.814 -3.825,-2.787 -9.598,0.12 -19.199,0.133 -28.797,-0.006 -2.35,-0.032 -3.441,0.889 -4.202,2.934 -2.254,6.058 -4.708,12.043 -6.896,18.124 -0.715,1.984 -1.603,2.841 -3.835,2.812 -9.598,-0.125 -19.197,-0.093 -28.796,-0.018 -1.864,0.015 -3.035,-0.557 -4.165,-2.104 -6.783,-9.294 -13.672,-18.51 -20.569,-27.72 -2.643,-3.529 -5.513,-6.567 -10.592,-6.293 -2.364,0.127 -3.05,0.772 -3.022,3.107 0.114,9.719 -0.055,19.439 0.11,29.156 0.049,2.863 -0.538,4.049 -3.693,3.894 -5.387,-0.266 -10.797,-0.152 -16.194,-0.035 -2.197,0.048 -3.197,-0.411 -3.19,-2.934 0.077,-30.957 0.052,-61.915 0.042,-92.872 0,-1.625 -0.133,-2.98 2.293,-3.072 11.729,-0.441 23.426,-1.621 35.184,-1.396 8.44,0.161 16.421,1.967 23.492,6.724 13.488,9.074 15.663,29.578 4.478,41.396 -2.815,2.974 -5.785,5.763 -9.609,7.429 -1.316,0.573 -1.896,1.167 -0.854,2.616 6.644,9.245 13.223,18.538 19.837,27.805 0.111,0.157 0.399,0.189 0.971,0.442 z"
   id="path4"
   style="fill:#5d6970;fill-opacity:1" />
		<path
   fill-rule="evenodd"
   clip-rule="evenodd"
   fill="#bd005e"
   d="m 739.583,392.312 c -0.904,12.26 -3.538,24.11 -8.6,35.346 -6.679,14.825 -16.834,26.981 -29.286,37.249 -19.529,16.103 -40.608,29.625 -64.797,37.71 -8.522,2.849 -17.225,5.077 -26.349,4.792 -0.849,-1.458 0.284,-2.505 0.837,-3.603 13.102,-26.039 21.955,-53.466 26.921,-82.169 0.243,-1.405 0.402,-2.848 1.076,-4.152 0.225,-0.333 0.502,-0.612 0.825,-0.847 9.906,-5.187 20.424,-8.865 30.995,-12.37 18.146,-6.015 36.817,-9.667 55.77,-11.973 2.971,-0.361 5.968,-0.422 8.931,-0.902 1.285,-0.207 2.657,-0.203 3.677,0.919 z"
   id="path6"
   style="fill:#96005b;fill-opacity:1" />
		<path
   fill-rule="evenodd"
   clip-rule="evenodd"
   fill="#eb7524"
   d="m 739.583,392.312 c -14.741,0.7 -29.236,3.102 -43.625,6.263 -19.141,4.204 -37.543,10.581 -55.355,18.71 -1.074,-0.901 -1.008,-2.109 -0.834,-3.308 3.143,-21.673 5.576,-43.448 9.313,-65.039 0.274,-0.842 0.712,-1.553 1.567,-1.921 12.754,-6.029 25.741,-11.417 39.478,-14.861 14.436,-3.621 29.079,-5.554 43.951,-5.908 1.398,-0.033 1.949,0.375 2.128,1.697 2.892,21.364 5.09,42.762 3.377,64.367 z"
   id="path8"
   style="fill:#d2742e;fill-opacity:1" />
		<path
   fill-rule="evenodd"
   clip-rule="evenodd"
   fill="#732f86"
   d="m 650.649,347.018 c -0.159,0.442 -0.318,0.883 -0.478,1.325 -4.961,3.794 -10.641,6.435 -15.806,9.923 -38.575,26.043 -63.744,61.595 -75.87,106.466 -0.342,1.266 -0.487,2.602 -1.234,3.735 -0.285,0.27 -0.603,0.313 -0.951,0.137 -2.408,-5.125 -2.826,-10.754 -3.986,-16.18 -2.908,-13.599 -4.846,-27.344 -5.332,-41.261 -1.146,-32.871 14.131,-56.162 41.975,-72.271 17.068,-9.875 35.219,-17.202 53.771,-23.654 5.063,-1.761 10.156,-3.437 15.863,-5.363 -3.257,12.623 -6.153,24.772 -7.952,37.143 z"
   id="path10"
   style="fill:#663387;fill-opacity:1" />
		<path
   fill-rule="evenodd"
   clip-rule="evenodd"
   fill="#ada099"
   d="m 99.593,443.839 c 0,19.936 0,38.879 0,57.822 0,5.885 0,5.884 -5.935,5.883 -3.718,0 -7.45,-0.194 -11.15,0.063 -3.213,0.223 -4.291,-0.675 -4.263,-4.108 0.167,-21.229 0.083,-42.461 0.083,-63.69 0,-9.356 0.079,-18.713 -0.051,-28.067 -0.037,-2.67 0.818,-3.593 3.502,-3.513 5.512,0.165 11.036,0.145 16.55,0.006 2.323,-0.059 3.729,0.79 4.984,2.714 11.002,16.861 22.088,33.667 33.155,50.485 0.658,1 1.256,2.072 2.073,2.927 1.044,1.093 1.958,0.83 2.195,-0.718 0.143,-0.939 0.062,-1.914 0.062,-2.873 0.002,-16.313 0.069,-32.625 -0.063,-48.938 -0.023,-2.846 0.757,-3.765 3.619,-3.615 4.425,0.231 8.879,0.217 13.308,0.007 2.958,-0.14 3.95,0.803 3.911,3.839 -0.154,11.873 -0.063,23.748 -0.063,35.623 0,18.712 -0.068,37.424 0.069,56.135 0.021,3.031 -0.859,3.936 -3.84,3.789 -4.786,-0.235 -9.596,-0.182 -14.388,-0.015 -2.437,0.085 -3.764,-0.663 -5.04,-2.893 -11.49,-20.082 -23.986,-39.538 -37.012,-58.654 -0.322,-0.474 -0.699,-0.91 -1.706,-2.209 z"
   id="path12"
   style="fill:#5d6970;fill-opacity:1" />
		<path
   fill-rule="evenodd"
   clip-rule="evenodd"
   fill="#ada099"
   d="m -26.164,480.97 c 0.001,6.955 -0.046,13.911 0.033,20.865 0.02,1.794 -0.435,2.863 -2.283,3.443 -16.864,5.291 -33.849,6.592 -50.76,0.669 -16.667,-5.838 -26.089,-18.131 -29.029,-35.296 -1.859,-10.852 -1.646,-21.766 2.176,-32.266 6.236,-17.127 19.243,-26.403 36.469,-30.162 12.047,-2.629 24.228,-2.338 36.384,-0.198 2.187,0.384 2.761,1.306 2.717,3.308 -0.106,4.794 -0.217,9.596 -0.051,14.386 0.096,2.78 -0.468,3.538 -3.365,2.605 -8.46,-2.724 -17.246,-2.978 -25.973,-2.105 -12.534,1.252 -20.774,9.213 -23.376,21.825 -1.952,9.459 -1.623,18.813 1.715,27.902 4.83,13.158 18.472,16.671 28.766,14.324 3.009,-0.687 4.306,-2.417 4.237,-5.644 -0.172,-8.031 0.036,-16.069 -0.109,-24.101 -0.046,-2.537 0.418,-3.653 3.296,-3.525 5.386,0.24 10.792,0.176 16.184,0.02 2.399,-0.069 3.061,0.761 3.017,3.084 -0.133,6.955 -0.048,13.911 -0.048,20.866 z"
   id="path14"
   style="fill:#5d6970;fill-opacity:1" />
		<path
   fill-rule="evenodd"
   clip-rule="evenodd"
   fill="#ada198"
   d="m -4.565,458.099 c 0,-15.238 0.111,-30.479 -0.083,-45.715 -0.044,-3.455 1.12,-4.19 4.31,-4.167 18.238,0.129 36.477,0.134 54.714,-0.007 3.073,-0.024 3.924,0.932 3.761,3.873 -0.232,4.187 -0.154,8.399 -0.022,12.594 0.068,2.187 -0.563,3.008 -2.861,2.743 -10.753,-1.237 -21.562,-0.491 -32.34,-0.813 -3.015,-0.09 -4.238,1.284 -4.322,3.935 -0.153,4.794 -0.096,9.596 -0.202,14.392 -0.051,2.334 1.566,1.974 2.959,1.977 9.599,0.013 19.2,0.098 28.796,-0.052 2.747,-0.043 3.895,0.599 3.671,3.563 -0.262,3.46 -0.222,6.965 -0.01,10.431 0.162,2.637 -0.588,3.531 -3.364,3.482 -9.596,-0.17 -19.198,0.006 -28.795,-0.114 -2.417,-0.03 -3.391,0.512 -3.308,3.146 0.188,5.994 0.129,11.998 0.029,17.996 -0.043,2.642 1.016,3.626 3.636,3.586 11.755,-0.179 23.513,-0.164 35.265,-0.436 1.906,-0.045 2.276,0.427 2.26,2.067 -0.045,4.799 -0.064,9.6 0.008,14.397 0.027,1.763 -0.439,2.601 -2.407,2.596 -19.798,-0.051 -39.596,-0.061 -59.395,0.002 -2.779,0.01 -2.295,-1.787 -2.296,-3.399 -0.01,-15.36 -0.006,-30.718 -0.004,-46.077 z"
   id="path16"
   style="fill:#5d6970;fill-opacity:1" />
		<path
   fill-rule="evenodd"
   clip-rule="evenodd"
   fill="#ada099"
   d="m 271.122,457.779 c 0,-15.352 0.058,-30.702 -0.056,-46.053 -0.019,-2.6 0.556,-3.527 3.353,-3.509 18.708,0.121 37.418,0.104 56.127,0.012 2.483,-0.013 3.373,0.662 3.267,3.222 -0.189,4.55 -0.132,9.115 -0.02,13.67 0.048,1.952 -0.685,2.536 -2.526,2.322 -10.751,-1.246 -21.55,-0.623 -32.328,-0.768 -4.266,-0.058 -4.687,0.406 -4.766,4.741 -0.07,3.837 0.12,7.688 -0.145,11.508 -0.213,3.066 0.602,4.161 3.91,4.076 9.348,-0.241 18.708,0.002 28.061,-0.142 2.584,-0.039 3.688,0.512 3.5,3.342 -0.246,3.702 -0.202,7.439 -0.01,11.147 0.128,2.466 -0.848,2.989 -3.109,2.965 -9.713,-0.104 -19.43,0.039 -29.142,-0.101 -2.563,-0.037 -3.275,0.787 -3.204,3.269 0.165,5.632 0.217,11.277 -0.007,16.905 -0.137,3.415 0.948,4.678 4.479,4.596 11.027,-0.255 22.063,-0.12 33.092,-0.38 2.819,-0.067 3.829,0.575 3.66,3.494 -0.236,4.064 -0.194,8.158 -0.011,12.228 0.111,2.479 -0.622,3.291 -3.193,3.277 -19.188,-0.1 -38.378,-0.105 -57.566,0.007 -2.687,0.017 -3.45,-0.714 -3.428,-3.416 0.127,-15.469 0.062,-30.941 0.062,-46.412 z"
   id="path18"
   style="fill:#5d6970;fill-opacity:1" />
		<path
   fill-rule="evenodd"
   clip-rule="evenodd"
   fill="#00586e"
   d="m 556.311,468.603 c 0.182,0.059 0.366,0.068 0.553,0.028 4.363,-4.855 9.929,-8.231 15.135,-11.999 C 592,442.16 613.035,429.37 635.35,418.75 c 1.344,-0.64 2.632,-2.284 4.471,-0.997 -1.201,10.93 -3.896,21.564 -6.739,32.134 -5.38,19.991 -12.825,39.208 -22.53,57.521 -18.077,1.289 -33.44,-4.142 -44.9,-18.623 -4.685,-5.917 -8.223,-12.533 -9.341,-20.182 z"
   id="path20"
   style="fill:#30688d;fill-opacity:1" />
		<path
   fill-rule="evenodd"
   clip-rule="evenodd"
   fill="#ada199"
   d="m 216.772,408.278 c 12.838,-0.001 25.676,0.062 38.514,-0.053 2.679,-0.024 3.908,0.486 3.74,3.528 -0.264,4.785 -0.112,9.595 -0.052,14.393 0.024,1.918 -0.295,2.6 -2.637,2.424 -7.76,-0.582 -15.529,-1.15 -23.333,-1.081 -3.262,0.028 -4.357,1.255 -4.501,4.461 -1.043,23.258 -0.262,46.525 -0.498,69.786 -0.059,5.81 -0.008,5.81 -5.992,5.81 -4.08,0 -8.159,0 -12.238,-0.002 -4.722,-10e-4 -4.726,-0.002 -4.726,-4.572 -0.002,-23.276 0,-46.553 -0.002,-69.829 -0.001,-5.534 -0.059,-5.529 -5.661,-5.609 -7.56,-0.108 -15.085,0.492 -22.603,1.108 -2.01,0.165 -2.234,-0.609 -2.226,-2.156 0.024,-4.8 0.168,-9.606 -0.055,-14.396 -0.136,-2.928 0.671,-3.924 3.756,-3.882 12.837,0.17 25.676,0.072 38.514,0.07 z"
   id="path22"
   style="fill:#5d6970;fill-opacity:1" />
		<path
   fill-rule="evenodd"
   clip-rule="evenodd"
   fill="#fefefe"
   d="m 376.961,443.943 c 0.196,-4.355 0.465,-9.494 0.639,-14.634 0.055,-1.587 0.479,-2.868 2.03,-3.46 6.796,-2.591 16.279,-0.205 19.662,4.738 5.943,8.684 0.765,21.254 -9.574,22.908 -3.206,0.513 -6.425,0.535 -9.652,0.676 -2.639,0.115 -3.34,-0.917 -3.139,-3.329 0.168,-2.024 0.034,-4.073 0.034,-6.899 z"
   id="path24" />
		<path
   fill-rule="evenodd"
   clip-rule="evenodd"
   fill="#fefefe"
   d="m 473.907,437.884 c 3.738,9.017 6.944,17.462 9.854,26.025 0.564,1.659 -0.209,1.809 -1.495,1.804 -5.621,-0.02 -11.241,-0.021 -16.862,0.002 -1.421,0.005 -2.41,-0.203 -1.757,-2.01 3.069,-8.487 6.146,-16.97 10.26,-25.821 z"
   id="path26" />
		<path
   fill-rule="evenodd"
   clip-rule="evenodd"
   fill="#00a38b"
   d="m 639.82,417.753 c -10.811,4.595 -21.06,10.28 -31.213,16.144 -17.312,9.997 -33.768,21.26 -49.545,33.527 -0.651,0.506 -1.462,0.809 -2.199,1.207 2.137,-11.575 6.158,-22.55 10.922,-33.244 10.314,-23.157 24.98,-43.244 43.599,-60.4 11.125,-10.251 23.44,-18.905 36.769,-26.087 0.599,-0.324 1.343,-0.378 2.02,-0.557 -3.193,22.385 -6.39,44.77 -9.57,67.157 -0.083,0.585 -0.005,1.19 0,1.785 -0.262,0.153 -0.522,0.312 -0.783,0.468 z"
   id="path28"
   sodipodi:nodetypes="ccsccsccscc"
   style="fill:#44a78e;fill-opacity:1" />
	</g>
</g>
</svg>
